<svg width="32" height="22" viewBox="0 0 34 24" fill="none" <?xml version="1.0" encoding="UTF-8"?><svg id="katman_2" xmlns="http://www.w3.org/2000/svg" xmlns:xlink="http://www.w3.org/1999/xlink" viewBox="0 0 755.21 685.64"><defs><style>.cls-1{fill:url(#linear-gradient);}.cls-1,.cls-2,.cls-3,.cls-4,.cls-5,.cls-6,.cls-7,.cls-8,.cls-9{stroke-width:0px;}.cls-2{fill:url(#linear-gradient-4);}.cls-3{fill:url(#linear-gradient-2);}.cls-4{fill:url(#linear-gradient-3);}.cls-5{fill:url(#linear-gradient-8);}.cls-6{fill:url(#linear-gradient-9);}.cls-7{fill:url(#linear-gradient-7);}.cls-8{fill:url(#linear-gradient-5);}.cls-9{fill:url(#linear-gradient-6);}</style><linearGradient id="linear-gradient" x1="-6343.26" y1="2080.95" x2="-6007.36" y2="1679.4" gradientTransform="translate(-5661.96 943.22) rotate(159.02) scale(1.07 -.93) skewX(18.48)" gradientUnits="userSpaceOnUse"><stop offset="0" stop-color="#d4d5ff"/><stop offset=".08" stop-color="#cdceff"/><stop offset=".19" stop-color="#bbbdff"/><stop offset=".31" stop-color="#9ea0ff"/><stop offset=".45" stop-color="#7679ff"/><stop offset=".6" stop-color="#4246ff"/><stop offset=".61" stop-color="#3f43ff"/><stop offset="1" stop-color="#3b3fff"/></linearGradient><linearGradient id="linear-gradient-2" x1="4209.19" y1="-6987.89" x2="4494.64" y2="-7329.12" gradientTransform="translate(4855.94 5990.39) rotate(159.02) scale(1.07 -.93) skewX(18.48)" gradientUnits="userSpaceOnUse"><stop offset="0" stop-color="#cccdff"/><stop offset=".09" stop-color="#c0c1ff"/><stop offset=".26" stop-color="#a2a3ff"/><stop offset=".48" stop-color="#7173ff"/><stop offset=".65" stop-color="#474aff"/><stop offset="1" stop-color="#3d41ff"/></linearGradient><linearGradient id="linear-gradient-3" x1="-4865.9" y1="2353.98" x2="-5221.2" y2="1989.08" gradientTransform="translate(-4496.01 804.66) rotate(150.8) scale(1.15 -.87) skewX(23.07)" gradientUnits="userSpaceOnUse"><stop offset="0" stop-color="#cccdff"/><stop offset=".09" stop-color="#c0c1ff"/><stop offset=".24" stop-color="#a2a3ff"/><stop offset=".45" stop-color="#7173ff"/><stop offset=".61" stop-color="#474aff"/><stop offset="1" stop-color="#3d41ff"/></linearGradient><linearGradient id="linear-gradient-4" x1="5147.65" y1="-7360.65" x2="4842.88" y2="-7673.66" gradientTransform="translate(-4753.15 -4251.64) rotate(-29.2) scale(1.15 -.87) skewX(23.07)" gradientUnits="userSpaceOnUse"><stop offset="0" stop-color="#3d41ff"/><stop offset=".43" stop-color="#474aff"/><stop offset=".54" stop-color="#6366ff"/><stop offset=".86" stop-color="#aeafff"/><stop offset="1" stop-color="#cccdff"/></linearGradient><linearGradient id="linear-gradient-5" x1="3685" y1="-5915.92" x2="3966.89" y2="-6252.89" gradientTransform="translate(-3587.2 -4390.2) rotate(-20.98) scale(1.07 -.93) skewX(18.48)" gradientUnits="userSpaceOnUse"><stop offset="0" stop-color="#3d41ff"/><stop offset=".66" stop-color="#7c7eff"/><stop offset="1" stop-color="#bcbeff"/></linearGradient><linearGradient id="linear-gradient-6" x1="3712.16" y1="-5896.18" x2="3997.61" y2="-6237.41" gradientTransform="translate(-3587.2 -4390.2) rotate(-20.98) scale(1.07 -.93) skewX(18.48)" gradientUnits="userSpaceOnUse"><stop offset="0" stop-color="#4347ff"/><stop offset=".55" stop-color="#8386ff"/><stop offset="1" stop-color="#cacbff"/></linearGradient><linearGradient id="linear-gradient-7" x1="366.05" y1="320" x2="790.91" y2="-111.46" gradientUnits="userSpaceOnUse"><stop offset="0" stop-color="#d4d5ff"/><stop offset=".07" stop-color="#cdceff"/><stop offset=".17" stop-color="#bbbdff"/><stop offset=".28" stop-color="#9ea0ff"/><stop offset=".4" stop-color="#7679ff"/><stop offset=".53" stop-color="#4246ff"/><stop offset=".54" stop-color="#3f43ff"/><stop offset="1" stop-color="#3b3fff"/></linearGradient><linearGradient id="linear-gradient-8" x1="421.62" y1="257.65" x2="-23.34" y2="837.03" gradientTransform="matrix(1,0,0,1,0,0)" xlink:href="#linear-gradient-6"/><linearGradient id="linear-gradient-9" x1="2417.79" y1="2146.7" x2="2814.71" y2="1743.61" gradientTransform="translate(2816.81 2502.34) rotate(-180)" xlink:href="#linear-gradient-5"/></defs><g id="graphics"><path class="cls-1" d="m393.6,230.3v236.04c0,18.73,10.01,32.23,33.7,45.45,31.42,17.53,147,54.19,188.74,67.45,24.54,7.8,43.42-14.64,14.84-47.2-23.81-27.13-128.82-142.96-182.6-200.47-26.81-28.66-54.67-52.36-54.67-101.27Z"/><path class="cls-3" d="m393.6,334.71v131.63c0,18.72,10.01,32.23,33.7,45.45,31.42,17.53,147,54.18,188.74,67.45,16.06,5.1,29.71-2.75,29.19-17.92-3.28,22.33-30.61,7.27-51.84-8.61-33.87-25.32-84.11-67.4-145.11-116.73-30.52-24.68-54.67-52.36-54.67-101.27Z"/><path class="cls-4" d="m393.6,466.34v-236.04c0-24.75,13.6-54.56,52.83-76.57,55.72-31.26,184.79-105.8,257.84-142.21,51.72-25.77,70.98-7.24,24.87,44.77-33.26,37.51-195.38,218.41-267.68,301.49-27.82,31.98-62.23,63.63-67.86,108.55Z"/><path class="cls-2" d="m361.61,219.3v236.04c0,24.75-13.6,54.56-52.83,76.57-55.72,31.26-184.79,105.8-257.84,142.21-51.72,25.77-70.98,7.24-24.87-44.77,33.26-37.51,195.38-218.41,267.68-301.5,27.82-31.98,62.23-63.63,67.86-108.55Z"/><path class="cls-8" d="m361.61,455.34v-236.04c0-18.73-10.01-32.23-33.7-45.45-31.42-17.53-147-54.18-188.74-67.45-24.54-7.8-43.42,14.64-14.84,47.2,23.82,27.13,128.82,142.96,182.6,200.47,26.81,28.66,54.67,52.36,54.67,101.27Z"/><path class="cls-9" d="m361.61,350.93v-131.63c0-18.73-10.01-32.23-33.7-45.45-31.42-17.53-147-54.18-188.74-67.45-16.06-5.11-29.71,2.75-29.19,17.92,3.28-22.33,30.61-7.27,51.84,8.6,33.87,25.32,84.11,67.4,145.11,116.73,30.52,24.68,54.67,52.36,54.67,101.27Z"/><path class="cls-7" d="m393.6,357.33v-127.02c0-24.75,13.6-54.56,52.83-76.57,55.72-31.26,184.79-105.8,257.84-142.21,35.84-17.86,56.09-14.44,49.81,6.64,1.78-16.09-13.92-12.71-28.15-1.54-40.41,31.74-190.69,146.41-270.32,216.54-49,43.16-56.37,79.24-62.01,124.16Z"/><path class="cls-5" d="m361.61,219.3v236.04c0,24.75-13.6,54.56-52.83,76.57-55.72,31.25-184.79,105.8-257.84,142.21-51.72,25.78-70.98,7.24-24.87-44.77,33.26-37.51,195.38-218.41,267.68-301.49,27.82-31.98,62.23-63.63,67.86-108.55Z"/><path class="cls-6" d="m361.61,308.32v147.02c0,24.75-13.6,54.56-52.83,76.57-55.72,31.25-184.79,105.8-257.84,142.21-35.84,17.86-56.09,14.44-49.81-6.64-1.78,16.09,13.92,12.71,28.15,1.54,40.41-31.74,208.07-163.82,287.07-234.67,31.55-28.3,45.26-70.02,45.26-126.03Z"/></g></svg>


